PathFileType	3	(X/Y/Z)	D:\minhoCalibration\240510\subject1_KPNP\preferred\preferred13.trc
DataRate	CameraRate	NumFrames	NumMarkers	Units	OrigDataRate	OrigDataStartFrame	OrigNumFrames
200.0	200.0	15	10	mm	200.0	316	152	
Frame#	Time	Left_Ankle_Outer1			Left_Ankle_Inner1			Left_Knee_Outer1			Left_Knee_Inner1			Left_Wrist1			Right_Wrist1			Right_Knee_Inner1			Right_Knee_Outer1			Right_Ankle_Inner1			Right_Ankle_Outer1			
		X1	Y1	Z1	X2	Y2	Z2	X3	Y3	Z3	X4	Y4	Z4	X5	Y5	Z5	X6	Y6	Z6	X7	Y7	Z7	X8	Y8	Z8	X9	Y9	Z9	X10	Y10	Z10	
316	1.57	-446.72882	132.37416	-578.34906	-500.61847	135.04715	-569.01807	-439.74274	543.5144	-369.44995	-544.24756	511.603	-409.67004	-415.38049	966.40613	-550.05945	-683.53235	974.30481	-775.87231	-810.21619	524.60321	-702.34479	-844.38202	571.18518	-807.68951	-659.15558	207.79546	-991.36591	-727.48193	223.21681	-1077.0682
317	1.575	-446.04095	131.95741	-578.33026	-499.866	135.07019	-569.06744	-435.73343	543.67395	-371.23593	-540.41174	512.42889	-409.73767	-411.53702	969.95642	-547.16113	-682.55878	976.21716	-770.67352	-814.3717	530.82104	-684.93579	-850.7879	576.22144	-789.86511	-661.85199	219.78806	-981.48218	-732.63007	234.58253	-1065.3079
318	1.58	-445.31787	131.64301	-578.37274	-499.09015	135.21477	-569.16003	-431.53885	544.02905	-373.38583	-536.32477	513.40045	-409.94394	-407.39911	973.55695	-544.54272	-683.30774	980.1803	-761.15668	-817.38495	537.12256	-666.79425	-856.34515	581.23242	-770.52039	-663.54584	232.94835	-971.48389	-737.54315	245.60159	-1052.0286
319	1.585	-444.41632	131.364	-578.42322	-498.08646	135.40776	-569.22534	-427.08936	544.55554	-376.02628	-532.01965	514.59338	-410.3894	-402.92282	977.2984	-542.44922	-683.98163	982.88477	-753.22144	-819.24811	543.19788	-648.25677	-861.51636	586.74158	-751.19916	-664.41882	247.30377	-961.35022	-742.02545	257.1449	-1038.0394
320	1.59	-443.34436	131.25578	-578.59875	-496.98318	135.63509	-569.32013	-422.4567	545.30316	-379.02869	-527.37579	515.83356	-411.43771	-398.10468	981.12372	-541.06592	-684.97137	987.23773	-744.3526	-819.82355	548.95575	-629.25061	-865.96802	592.27185	-731.03113	-664.55402	262.98911	-950.87506	-745.57959	268.96371	-1023.9448
321	1.595	-442.29922	131.22414	-578.78644	-495.84579	136.01387	-569.39429	-417.6185	546.25745	-382.4614	-522.6842	517.25891	-413.02463	-392.75131	985.05304	-540.66583	-686.78992	991.31525	-734.09583	-819.45361	554.62335	-609.5058	-869.70612	597.79352	-710.35156	-663.6582	280.15121	-939.67419	-747.32922	280.68863	-1009.3052
322	1.6	-441.30743	131.23225	-579.00055	-494.6105	136.56683	-569.56104	-412.5531	547.46497	-386.2132	-517.9104	518.92816	-415.28787	-386.71109	988.87134	-541.67896	-688.33215	995.97046	-724.34424	-818.06628	560.08606	-589.08801	-872.60919	603.30353	-688.82166	-662.23877	298.17978	-927.66937	-748.03302	294.01904	-995.89636
323	1.605	-440.30161	131.37978	-579.33936	-493.52032	137.27119	-569.52435	-407.15701	548.9314	-390.38089	-512.68866	522.06989	-416.63126	-380.17499	992.42487	-544.38275	-690.33875	1001.5184	-711.82141	-815.73096	565.46332	-568.08069	-874.69604	608.80115	-666.51239	-660.62048	316.46664	-914.83685	-747.50293	309.47427	-981.6059
324	1.61	-439.28815	131.75323	-579.66351	-492.40198	138.04485	-569.48663	-401.69073	550.58264	-395.24142	-507.58694	522.59656	-422.5842	-372.89285	995.63751	-548.1441	-692.45081	1006.502	-698.88904	-812.27881	571.03168	-546.30829	-875.69336	614.50183	-643.46478	-658.89685	334.77979	-900.79254	-746.47546	326.46338	-966.65631
325	1.615	-438.5209	132.13052	-579.99066	-491.46274	138.9357	-569.37732	-395.47675	552.48798	-400.05917	-501.60812	525.29468	-425.63586	-365.65381	998.71735	-553.40216	-693.78082	1012.2003	-686.1814	-807.46802	576.7832	-523.56476	-875.77991	620.49371	-618.54816	-657.43988	353.46045	-886.22125	-745.3606	344.80423	-950.8739
326	1.62	-437.79953	132.78825	-580.38776	-490.57974	140.09038	-569.07355	-389.41003	554.52905	-405.82349	-496.49274	527.74506	-429.37613	-358.26392	1001.762	-559.71313	-694.28864	1017.7759	-673.14203	-801.65698	583.10571	-500.53088	-874.63068	626.80469	-591.92108	-656.05853	372.44656	-870.31213	-744.41168	363.72421	-934.27655
327	1.625	-437.28064	133.58824	-580.67432	-489.67825	141.31082	-568.55865	-382.88437	556.76837	-411.95029	-490.46133	530.56262	-432.73602	-351.50043	1004.8608	-566.70801	-694.87372	1022.915	-658.80017	-794.15509	590.37811	-477.64685	-871.99359	633.79535	-564.35187	-654.97699	391.84332	-853.90253	-744.33716	383.62576	-916.66577
328	1.63	-436.92841	134.67534	-580.92969	-489.11569	142.88361	-567.72229	-376.17618	559.26495	-418.57138	-484.01611	533.54333	-435.79697	-344.66452	1008.0865	-574.88129	-694.14233	1029.547	-644.97168	-784.58899	598.3847	-453.29761	-868.23877	641.75476	-536.56207	-654.4328	411.79422	-836.99744	-744.3775	403.47375	-898.16113
329	1.635	-436.59659	135.99269	-581.10748	-488.18472	144.24094	-566.15417	-369.42294	561.97046	-425.54675	-477.89017	536.57629	-438.97174	-338.89502	1011.4142	-583.64917	-692.92053	1034.7565	-631.45819	-773.71545	607.35315	-429.077	-863.24512	650.59784	-507.80518	-654.57288	432.3302	-819.78644	-747.71039	424.66095	-877.41248
330	1.64	-436.35071	137.56236	-581.15308	-488.07425	146.74112	-564.42847	-362.43405	564.85278	-432.91818	-471.3266	539.8501	-441.77148	-333.99942	1014.9478	-592.86035	-690.43018	1041.4465	-618.52979	-761.48389	617.05035	-405.79416	-856.31879	660.22754	-478.32639	-655.32745	453.68207	-802.24573	-750.0343	447.19888	-856.91559
